<svg xmlns="http://www.w3.org/2000/svg" viewBox="0 0 294.77 340.37"><g id="Layer_2" data-name="Layer 2"><g id="Logo_A_2" data-name="Logo A 2"><polygon points="294.77 226.91 262.02 283.64 253.24 268.44 229.26 226.91 196.52 170.19 196.51 170.18 163.76 113.46 139.79 71.94 131.01 56.73 139.79 41.52 163.76 0 196.51 56.72 196.51 56.74 196.52 56.73 229.27 113.46 253.24 154.98 262.02 170.18 294.77 226.91"/><polygon points="163.76 226.92 139.79 268.44 131.01 283.64 98.26 226.91 131.01 170.19 139.79 185.4 163.76 226.92"/><polyline points="26.33 329.24 0 283.64 26.33 238.04 32.76 226.91 65.51 170.18 83.06 139.78 98.26 113.46 131.01 170.19 98.26 226.91 83.06 253.24 65.51 283.64"/><polyline points="65.51 283.64 32.76 340.37 26.33 329.24"/></g></g></svg>